<?xml version="1.0" encoding="UTF-8"?>
<svg id="svg72" xmlns="http://www.w3.org/2000/svg" version="1.1" viewBox="0 0 963.8 226.8">
  <!-- Generator: Adobe Illustrator 29.1.0, SVG Export Plug-In . SVG Version: 2.1.0 Build 142)  -->
  <defs>
    <style>
      .st0 {
        fill: none;
      }

      .st1 {
        fill: #fff;
      }
    </style>
  </defs>
  <path class="st0" d=""/>
  <g id="g70">
    <path id="path68" class="st1" d="M62.3,113.4l-21,21-21-21,21-21,21,21ZM113.1,62.5l35.9,35.9,21-21-56.9-56.9-56.9,56.9,21,21,35.9-35.9ZM185,92.4l-21,21,21,21,20.9-21-20.9-21ZM113.1,164.3l-35.9-35.9-21,20.9,56.9,56.9,56.9-56.9-21-20.9-35.9,35.9ZM113.1,134.3l21-21-21-21-21,21,21,21ZM334.3,136.4v-.3c0-13.7-7.3-20.5-19.1-25,7.3-4.1,13.4-10.5,13.4-22v-.3c0-16-12.8-26.3-33.6-26.3h-47.2v101.8h48.4c23,0,38.1-9.3,38.1-27.9h0ZM306.3,92.8c0,7.6-6.3,10.8-16.1,10.8h-20.6v-21.5h22.1c9.4,0,14.7,3.8,14.7,10.5v.3ZM312,133.6c0,7.6-6,11-15.9,11h-26.6v-22.3h25.9c11.5,0,16.6,4.2,16.6,11.1v.3ZM381.3,164.3V62.5h-22.5v101.8h22.5ZM501.6,164.3V62.5h-22.2v62.7l-47.7-62.7h-20.6v101.8h22.1v-64.7l49.3,64.7h19.1ZM625.6,164.3l-43.7-102.5h-20.6l-43.6,102.5h22.8l9.3-22.8h43l9.3,22.8h23.4ZM584.9,121.7h-27.1l13.5-33,13.6,33ZM732.3,164.3V62.5h-22.2v62.7l-47.7-62.7h-20.6v101.8h22.1v-64.7l49.3,64.7h19.1ZM847.9,147.8l-14.2-14.4c-8,7.3-15.1,11.9-26.8,11.9-17.4,0-29.5-14.5-29.5-32v-.3c0-17.4,12.4-31.7,29.5-31.7s18.1,4.4,26,11.5l14.2-16.4c-9.4-9.3-20.9-15.7-40.1-15.7-31.2,0-53.1,23.7-53.1,52.6v.3c0,29.2,22.2,52.3,52.2,52.3,19.6,0,31.2-6.9,41.7-18.1h0ZM943.4,164.3v-19.9h-55.3v-21.4h48v-19.9h-48v-20.6h54.5v-19.9h-76.8v101.8h77.6Z"/>
  </g>
  <path class="st0" d=""/>
</svg>