<?xml version="1.0" encoding="UTF-8"?>
<svg id="Capa_1" xmlns="http://www.w3.org/2000/svg" version="1.1" viewBox="0 0 2500 768">
  <!-- Generator: Adobe Illustrator 29.1.0, SVG Export Plug-In . SVG Version: 2.1.0 Build 142)  -->
  <defs>
    <style>
      .st0 {
        fill: #fff;
      }

      .st0, .st1, .st2 {
        fill-rule: evenodd;
      }

      .st1 {
        fill: #9FCD82;
      }

      .st2 {
        fill: #9FCD82;
      }
    </style>
  </defs>
  <path class="st0" d="M530.9,355.1c65.8,88,154.7,134.7,262.8,146.3,39.5,4.2,39.6,3.4,39.6,42.6,0,39.7-1.1,79.5.4,119.1.8,20.3-7.1,24.5-25.3,23.3-143.4-9.7-268.6-60.8-372.4-161.5-5.8-5.7-10.2-15-21.2-12.6-7.2-3.4-11-10.3-16.2-15.7-7.4-10.5-15.4-20.6-23.6-30.6-24-34-48.2-68-66.3-105.8-58.6-83.5-141.7-126.6-239.6-144.7-19.8-3.7-47,1.6-58.1-9.7-13.1-13.3-3.7-40.6-4.2-61.7-.7-29.1,1.4-58.4-.7-87.4-1.7-23.1,5.7-29.7,28.7-28.2,141,9.2,263.3,60.9,366.2,158,6.3,5.9,12.9,11.5,19.4,17.3,11.7,3.9,19.3,12.5,26.6,21.8,5.4,8.8,12.3,16.4,18.6,24.5,23.6,33.8,48.3,66.9,65.1,104.9h0Z"/>
  <path class="st0" d="M977,352.2c0-65,.6-130-.4-195-.3-17.6,4.4-23.4,22.7-23,53.3,1.3,106.7-.1,160.1.6,106.5,1.4,164.6,102.2,111.2,194-7.5,12.9-4.1,17.4,4.4,25.6,40.7,39.1,51.3,86.8,30.5,138.2-20.9,51.8-62.8,77.3-118.6,78-63.1.7-126.2-.4-189.2.5-16.5.2-21.4-4.3-21.2-21,.9-66,.4-132,.4-197.9h0ZM2020.9,259c24.3,0,48.6.1,72.8,0,9.3,0,19.7.1,16.4,13-5.5,21.6,16,49.1-14.9,65.6-6.1,3.3,1.4,10.2,3.3,15.2,20.2,52.4,16.5,102.5-14.6,149.9-4.4,6.8-9.9,11-2.3,21.8,55.5,79.4,21.4,181.4-71.4,217.1-94,36.1-201.1-28.6-209.9-125.8-1.6-17.5,2.9-22.6,19.4-20.9,10.6,1.1,21.4,1.1,32,0,22.8-2.4,36,1.7,45.2,28.3,15.5,44.5,81,51.1,111.2,14.8,20.6-24.8,13.6-51-16.5-61.9-13-4.7-26.5-5-40.1-5.4-84.5-2.4-149.6-67.8-152.6-152.5-2.8-80.1,58.1-149.5,140.5-157.5,26.9-2.6,54.3-.4,81.4-.4,0-.4,0-.9,0-1.3h0ZM2495.9,570.7c-30.3,0-60.1-.5-89.9.2-12.7.3-16-8.8-21-16.8-22.1-35.3-44-70.6-68.9-110.7-23.1,37.2-45.6,71.2-65.7,106.7-9.5,16.7-20.6,22.3-39.2,21.1-24.8-1.7-49.8-.4-79-.4,40.7-65.4,78.7-127.9,118.4-189.3,10.4-16.1,11-27,.2-43.5-39.6-60.8-77.2-122.9-118.6-189.6,35,0,66.3-.2,97.5.1,10.8.1,13.2,10.3,17.7,17.2,22.8,35.8,45.2,71.9,68.8,109.5,23.5-37.8,46.3-72.5,67.1-108.4,8.5-14.7,18.4-19.8,34.9-18.9,25,1.3,50.1.4,74.6.4,5.3,10.9-2.7,16-6.4,21.9-34.5,56-68.8,112.3-104.8,167.4-10.5,16.1-11.1,27.3-.5,43.5,35,53.5,68.3,108,101.9,162.4,4.9,7.9,12.5,14.7,13,27.4h0ZM1486.9,415.9c0-43.7,1.7-87.4-.7-131-1.2-23.4,7.3-29.6,27.7-25.9,22.6,4.1,47.9-10.5,68.5,10.4,2,2,10.6-2.3,16.1-3.8,85.8-24.3,170,19,165.6,126.5-2.1,51.3-1,102.9,0,154.3.3,17.6-2.4,25.1-23.2,25-67.5-.5-67.5.5-67.5-67.1s.2-75.7,0-113.5c-.3-33.7-17.8-54.7-46-55.9-29.1-1.2-49.2,20-49.8,55.4-.9,52.4-.7,104.8,0,157.2.2,16-1.4,23.9-21.3,23.9-69.4.3-69.4,1.3-69.4-68.1v-87.3Z"/>
  <path class="st0" d="M541.8,109.9c82.7-53.2,174.2-76.7,271.5-81.2,14.5-.7,20.7,3.3,20.4,19.2-.9,48.4-.6,96.9-.2,145.3.1,11.9-3.3,17.1-16.3,17.5-50.8,1.6-99,15.1-146.2,33.2-14.4-12.2-21.7-29.5-32.4-44.4-20.2-28-46.3-49.3-74.8-68-8.8-5.8-19.3-9.7-22-21.6h0ZM294.1,606.6c-81.9,52.9-173.4,73.1-269,79.8-13.8,1-18.7-3.8-18.5-17.9.7-48.4.7-96.8,0-145.3-.2-14.8,3.9-20.3,19.4-20.4,50.1-.4,97.2-14.5,143.2-33.2,14.7,6.4,18.2,21.9,26.4,33.5,21.3,30.1,43.5,59,75.8,78.5,9.7,5.9,19.9,12.3,22.8,24.9Z"/>
  <path class="st0" d="M1355.8,413.4c0-44.5.7-89.1-.4-133.6-.4-16.7,5.1-21,21.4-21.3,69.3-1.5,69.3-2.1,69.3,68.3s-.7,147.2.5,220.8c.3,19.2-5.1,23.8-23.9,23.7-67-.5-67,.3-67-67.8v-90.1Z"/>
  <path class="st0" d="M1446.2,181.2q0,44.9-54.5,44.9-36,0-36-55.3,0-36.2,58-36.2,32.5,0,32.5,46.6h0Z"/>
  <path class="st0" d="M294.1,606.6c-54.7-33.7-98.5-77.4-125-136.9l23.7-11.2c21,25.8,36.5,55.8,61.3,78.9,21.1,19.7,47.2,32.2,68.6,51.3-7.7,9-17.7,14.2-28.7,17.9h0ZM541.8,109.9c47.3,27.2,90,59.2,117.6,108,4.8,8.4,10.7,16,11.7,26-7.8,3.9-15.6,7.9-23.4,11.8-28.1-47-63.3-87.1-111.2-115.1-7-4.1-16-8.6-11.7-20,4.3-5.8,9.9-9.5,17.1-10.7h0Z"/>
  <path class="st0" d="M473.7,157.3c3.7-6.1,9.2-10,15.9-12.2,8.8-5.2,17.9-6.4,27.5-2.4,49.4,20.8,88,53.7,112.3,102.1,3.4,6.7,6.8,14.1.8,21.5-5.8,3.8-11.7,7.6-17.5,11.4-10.8-6-14.5-17.7-21.5-26.7-24.6-31.4-51.9-59.4-89.8-75.1-10.2-4.2-23.1-5.7-27.8-18.6Z"/>
  <path class="st0" d="M630.3,266.2c-26.3-64.3-69.9-108.4-140.6-121.1,10.4-10.1,20.7-20.2,35.1-24.5,30.8,25.8,66.2,46.2,91.8,78.1,13.9,17.2,30.5,32.7,31.1,57.1l-17.4,10.5Z"/>
  <path class="st0" d="M443.6,227.2c-9.6-5.9-17.4-13.5-23-23.3,5.5-4.6,11-9.2,16.4-13.9,59.9,5.8,104.3,35.9,135.3,86.6,5,8.1,10,16.7,6,27-3.9,7.7-10.5,12.6-17.9,16.6-8.5-2.1-11.8-9.3-15.4-16-22-41.3-54.5-68.6-101.5-77.1h0Z"/>
  <path class="st0" d="M362.8,559.3c-3.6,6.3-9,10.3-16,12.2-6.4,2-12.6,4.4-19.8,2.9-49.6-10.5-107.7-73.3-116.4-126.1,4.4-6.1,10.5-9.5,17.5-11.7,9.7,1.7,14.5,9.3,18.8,16.9,23.5,40.8,55.9,71.7,99.3,90.7,7.1,3.1,14.2,6.7,16.5,15.2Z"/>
  <path class="st0" d="M210.7,448.3c7.7,13.4,15.6,26.7,23,40.3,24.9,45.2,64.1,70.7,113.1,83-6.5,8-14.2,14.1-24.1,17.3-62.3-24.5-106-67.5-130-130.2,6-3.4,11.9-6.9,17.9-10.3h0Z"/>
  <path class="st0" d="M403.2,494.8c7.6,3.4,11.4,9.3,11.7,17.6-4.4,3.8-8.8,7.7-13.2,11.5-48,3.2-82.4-22.3-110.6-56.3-13.7-16.5-33.6-32.5-27.7-59.1,5.1-4.5,10.1-8.9,15.2-13.4,15-2.8,17.2,10.3,21.3,18.8,21.1,44.3,57.7,68.3,103.3,81Z"/>
  <path class="st0" d="M473.7,157.3c62.3,21.7,112.4,57.4,139.1,120.3-5.9,4.3-11.8,8.5-17.7,12.8-9.6-2.4-13.1-10.8-17.4-18.1-27.1-44.9-64.6-75.5-117.1-85.6-4.8-.9-9.2-2.7-12.1-6.9,6.5-9.7,14.8-17.3,25.3-22.6Z"/>
  <path class="st0" d="M448.4,179.9c73.5,4.3,116.4,49,146.7,110.6-5.6,4.4-11.2,8.8-16.8,13.3-24.7-56.4-66.9-91.9-127-105.6-5.8-1.3-11.3-2.2-14.3-8.1,2.2-5.2,5.8-8.7,11.4-10.1h0Z"/>
  <path class="st0" d="M263.4,408.4c25.1,63.7,72.1,101.1,138.3,115.5-2.8,8.7-10,13-17.2,17.5-17.7,8.5-31.6-2.9-46-9.5-36.3-16.5-64.8-41.9-83.3-77.7-5.7-11.1-12.7-22.3-3.9-35.2,4-3.5,8-7.1,12-10.6h0Z"/>
  <path class="st0" d="M251.4,419c11.9,61.1,56.2,91.9,108.2,115.1,7.8,3.5,16.6,4.9,25,7.3-5.6,8-13,13.8-21.7,18-62.1-22-104.5-65.6-134.7-122.7l23.2-17.7Z"/>
  <path class="st0" d="M403.2,494.8c-31,7.8-50.3-14.5-72.5-28.6-26.5-16.8-31.8-49.6-52.1-71.2,7.3-10.4,14.6-20.9,25.3-28.3,12.1,26.7,16.1,57.5,42.5,76.8,10.9,8,20.5,17.5,33.5,22.1,12.2,6.1,17.5,17.8,23.3,29.2Z"/>
  <path class="st0" d="M443.6,227.2c27.8-10.8,46.5,7.7,65.5,21.8,24.4,18.1,39.9,43.4,51.4,71.3-4.3,7.5-9.3,14.3-17.2,18.4-10.6-6.5-13.9-18-18.7-28.1-13.6-28.4-39.7-43-63.6-60.3-9-5.3-16.7-11.6-17.4-23.1h0Z"/>
  <path class="st0" d="M379.9,465.6c-7.2,9.8-14.9,2.7-19.8-1.3-31.4-25-59.8-52.3-56.2-97.7,1.6-2.1,3.3-4.2,4.9-6.4,30.3,30.6,48,69.8,71.1,105.3h0Z"/>
  <path class="st0" d="M461,250.3c47.8,10.5,68.6,46.2,82.3,88.4l-12.4,16.3c-28.7-31.3-47.4-69.3-69.9-104.8Z"/>
  <path class="st1" d="M1130.6,495q-63.3,0-63.3-61.9,0-43,44.4-42.9c21.3,0,42.7-.9,64,.4,31.5,1.9,53.8,26,52.4,54.7-1.5,28.7-23,48.8-53.9,49.7-14.5.5-29.1,0-43.6,0h0Z"/>
  <path class="st2" d="M1067.4,262q0-51.6,50.7-51.6c12.6,0,25.3-.9,37.7.3,29.6,2.9,49.8,26.3,48.5,54.9-1.2,27.5-21.5,47.5-50.7,49.4-10.6.7-21.3.2-31.9.2q-54.3,0-54.3-53.3h0ZM1954,480.2c-34.2-.4-64.9-31.5-64.8-65.6,0-35.2,32.7-66.5,68-65.2,34.6,1.2,63.7,32.1,62.9,67-.8,34.8-31.3,64.3-66.1,63.9h0Z"/>
</svg>