<?xml version="1.0" encoding="UTF-8"?>
<svg id="katman_1" xmlns="http://www.w3.org/2000/svg" version="1.1" viewBox="0 0 652 170.1">
  <!-- Generator: Adobe Illustrator 29.1.0, SVG Export Plug-In . SVG Version: 2.1.0 Build 142)  -->
  <defs>
    <style>
      .st0 {
        fill: #fff;
      }
    </style>
  </defs>
  <path class="st0" d="M221.4,106.3c0,3,.6,5.8,1.7,8.4s2.6,4.9,4.5,6.9c3.9,4,9.3,6.3,14.9,6.3s11-2.3,14.9-6.3c4-4.1,6.2-9.6,6.1-15.3,0-5.7-2.2-11.2-6.1-15.3-1.9-2-4.2-3.5-6.7-4.6-2.6-1.1-5.4-1.7-8.2-1.7-5.6,0-11,2.3-14.9,6.3-1.9,2-3.5,4.3-4.5,6.9-1.2,2.6-1.7,5.5-1.7,8.4h0ZM203.7,46.9c0-1.3.2-2.5.7-3.7.4-1.1,1.1-2.1,1.9-3,.8-.8,1.8-1.5,2.8-2,1.1-.5,2.3-.7,3.5-.7s2.4.2,3.5.7c2.1,1,3.8,2.8,4.6,5,.4,1.1.6,2.4.6,3.7v30.6c.9-1.6,2.1-3,3.6-4.4s3.3-2.5,5.2-3.5c1.9-1,3.9-1.8,6-2.4s4.2-.9,6.3-.9c5.2,0,10.3,1,15,3.1,4.6,2,8.8,4.9,12.3,8.6s6.3,8,8.3,12.7c2,4.9,3.1,10.2,3.1,15.5s-1,10.6-3.1,15.4c-2,4.7-4.8,8.9-8.3,12.6-3.5,3.6-7.7,6.5-12.3,8.5-4.7,2.1-9.8,3.2-15,3.1-5.2,0-10.3-1-15-3.1-4.6-2-8.8-4.9-12.3-8.5-3.6-3.6-6.4-7.9-8.4-12.6-2.1-4.9-3.1-10.1-3.1-15.4v-59.3h0ZM292.7,75.4c0-3.6,2.2-6.9,5.5-8.3,1.1-.5,2.3-.7,3.5-.7s2.3.2,3.4.7c2.1,1,3.7,2.7,4.5,4.8.4,1.1.7,2.3.7,3.5v61.4c0,2.4-.9,4.6-2.5,6.4-.8.8-1.7,1.5-2.8,1.9-1.1.5-2.2.7-3.4.7s-2.4-.2-3.4-.7c-2.1-.9-3.9-2.6-4.8-4.8-.5-1.1-.7-2.3-.7-3.5v-61.4h0ZM292,48.4c0-2.6,1-5.1,2.8-7,.9-.9,1.9-1.6,3-2.1,1.2-.5,2.4-.8,3.8-.8s2.5.3,3.7.8,2.2,1.2,3,2.1c.9.9,1.6,1.9,2.1,3.1s.8,2.5.8,3.8-.3,2.7-.8,3.9c-.5,1.2-1.2,2.2-2.1,3.1s-1.9,1.6-3,2.1c-1.2.5-2.4.8-3.7.8s-2.6-.3-3.8-.8c-1.1-.5-2.2-1.2-3-2.1-1.8-1.8-2.8-4.3-2.8-6.9h0ZM321.8,51.9c0-3.7,2.1-7,5.5-8.5,1.1-.5,2.2-.7,3.4-.7,2.4,0,4.7.9,6.4,2.6.8.8,1.5,1.8,2,2.9s.8,2.3.8,3.6v13.2h27.8c1.2,0,2.4.2,3.5.7,2.1.9,3.8,2.7,4.7,4.8.5,1.1.7,2.3.7,3.5s-.2,2.3-.7,3.4c-1.4,3.2-4.6,5.3-8.2,5.3h-27.8v23.8c0,3,.5,5.8,1.6,8.4s2.5,4.8,4.4,6.8c1.8,1.9,4,3.4,6.5,4.5s5.2,1.6,8.2,1.6,5-.4,7.2-1.1c2.2-.8,4.3-2,6.2-3.7,1.1-.9,2.1-1.7,3.1-2.2,1-.6,2.2-.9,3.6-.9s2,.2,2.9.7c1,.4,1.8,1,2.5,1.8s1.3,1.7,1.8,2.8c.5,1.1.7,2.2.7,3.4s-.3,2.8-.8,4.1c-.5,1.3-1.3,2.5-2.4,3.5-3.2,3.2-7.1,5.7-11.3,7.3-4.2,1.6-8.7,2.4-13.5,2.4s-10.4-1-15.2-3.1c-4.6-2-8.8-4.8-12.3-8.4s-6.3-7.9-8.3-12.5c-2.1-4.9-3.1-10.2-3.1-15.5v-54.5h0ZM400.2,108.1c0-5.6,1.1-11.1,3.2-16.2,2-4.9,5-9.5,8.7-13.3s8.1-6.8,12.9-9c4.9-2.2,10.3-3.3,15.7-3.3h.2c2.9,0,5.2.8,6.7,2.5,1.6,1.7,2.4,3.9,2.4,6.5s-.2,2.5-.7,3.6c-.4,1.1-1.1,2.1-1.9,2.9-1.7,1.7-4.1,2.6-6.5,2.6h-.4c-3,0-5.9.7-8.6,1.9-2.7,1.2-5.1,2.9-7.2,5s-3.7,4.5-5,7.3-1.9,5.9-1.9,9v28.5c0,1.2-.2,2.4-.7,3.5s-1.1,2-1.8,2.9c-.8.8-1.7,1.5-2.7,1.9-2.2.9-4.6.9-6.8,0-1.1-.5-2.1-1.1-2.9-1.9-1.7-1.7-2.7-4-2.7-6.4v-28h0ZM461.5,75.3c0-2.4.9-4.6,2.5-6.4.8-.8,1.7-1.5,2.8-1.9,1.1-.5,2.2-.7,3.4-.7,2.4,0,4.6.9,6.3,2.6s1.4,1.8,1.9,2.9.7,2.3.7,3.5v32.3c0,2.9.5,5.5,1.5,8,1.9,4.8,5.7,8.6,10.4,10.7,2.4,1,5,1.5,7.8,1.5,5,.1,9.9-2.1,13.2-5.9,1.6-1.9,2.9-4.1,3.6-6.4.8-2.5,1.3-5.2,1.3-8v-32.1c0-2.4,1-4.7,2.7-6.4.8-.8,1.8-1.5,2.9-1.9,1.1-.5,2.2-.7,3.4-.7,2.3,0,4.5.9,6.1,2.6s2.5,4,2.5,6.4v32.1c0,5.3-.9,10.3-2.7,15-1.7,4.5-4.2,8.6-7.5,12.2-3.2,3.5-7,6.3-11.3,8.3-4.4,2-9.1,3-14.2,3s-10-1-14.6-3c-4.5-2-8.5-4.8-11.9-8.3-7-7.3-10.9-17-10.9-27.2v-32.2h0ZM565.8,114.4c1.4,4.1,3.9,7.6,7.3,10.2,1.7,1.2,3.5,2.2,5.6,2.9,2,.7,4.2,1.1,6.4,1.1s4.3-.2,5.9-.6c1.5-.4,3-1.1,4.4-1.9,1.9-1.1,3.6-1.7,5.2-1.7s2.4.3,3.4.8c1.1.5,2,1.2,2.7,2.1,1.6,1.8,2.5,4.1,2.5,6.5s-.6,3.5-1.7,5c-1.2,1.5-2.8,2.8-4.9,3.9-2.4,1.2-5,2-7.6,2.4-3.2.6-6.5.9-9.8.9-5.2,0-10.3-1-15.1-3.1-4.6-2-8.9-4.9-12.4-8.5-3.6-3.6-6.4-7.9-8.4-12.6-2.1-4.9-3.1-10.1-3.1-15.4s1-10.6,3.1-15.6c2-4.7,4.8-9,8.4-12.6,3.6-3.6,7.8-6.5,12.4-8.5,4.8-2.1,9.9-3.2,15.1-3.1,5.3,0,10.3,1,15,3.1s8.8,4.9,12.3,8.4c3.6,3.6,6.4,7.8,8.4,12.5,2.1,4.8,3.2,9.9,3.3,15.4,0,2.6-.8,4.7-2.4,6.3-1.6,1.6-3.7,2.4-6.2,2.4l-49.8-.3ZM605.9,99.2c-.6-2.2-1.6-4.4-2.9-6.3-1.3-1.9-2.8-3.5-4.6-4.9s-3.8-2.5-6-3.2c-2.2-.8-4.6-1.1-7.1-1.1s-4.8.4-7,1.2c-2.2.8-4.2,1.9-5.9,3.3s-3.3,3.1-4.5,4.9c-1.2,1.9-2.2,3.9-2.7,6.1h40.7Z"/>
  <path class="st0" d="M146.1,112.4V31.3l23.7,13.5v81.2l-43.5,24.8-23.7-13.5,43.5-24.9ZM27.5,76.2l23.7-13.5v49.5h0l71.2,40.5h0l-23.7,13.5L27.5,125.7v-49.5ZM98.7,3.6h0l43.5,24.7v27.1l-43.5-24.7h0L27.5,71.3h0v-27h0L98.7,3.6ZM72.1,51.8l16.1-9.1v34c1.7-1.2,5.5-4.2,11.4-4.2s14.1,2.6,19.5,7.9,8,11.7,8,19.2-2.7,13.9-8,19.2c-5.4,5.3-11.8,8-19.5,8s-14.2-2.7-19.5-8c-5.4-5.3-8-11.7-8-19.2v-47.8ZM91.5,107.5c2.2,2.2,4.9,3.3,8.1,3.3s5.8-1.1,8-3.3c2.2-2.1,3.4-5,3.4-8s-1.1-5.7-3.4-7.9c-2.1-2.1-5-3.3-8-3.3s-5.8,1.1-8.1,3.3c-2.2,2-3.4,4.9-3.4,7.9,0,3.1,1.2,5.8,3.4,8Z"/>
</svg>