<?xml version="1.0" encoding="UTF-8"?>
<svg id="Capa_1" xmlns="http://www.w3.org/2000/svg" version="1.1" viewBox="0 0 566.9 141.7">
  <!-- Generator: Adobe Illustrator 29.1.0, SVG Export Plug-In . SVG Version: 2.1.0 Build 142)  -->
  <defs>
    <style>
      .st0 {
        fill: #fff;
      }
    </style>
  </defs>
  <path class="st0" d="M191.6,54.2c-5.8,0-11.4,1.8-16.1,5.1v-28.1h-12.1v79.3h12.1v-5.1c17.7,12.4,42.3,1,44.2-20.6,1.5-16.5-11.6-30.7-28.1-30.6h0ZM191.6,98.5c-12.4,0-20.1-13.4-13.9-24.1s21.7-10.7,27.9,0c1.4,2.4,2.2,5.2,2.2,8,0,8.9-7.2,16-16.1,16h0Z"/>
  <path class="st0" d="M230.4,54.2h12.1v56.3h-12.1v-56.3ZM230.4,36.2h12.1v12.1h-12.1v-12.1Z"/>
  <path class="st0" d="M288.6,98.4h-9.4c-3.3,0-5.4-2.7-5.4-6v-26.1h16.8l-4.2-12.1h-12.5v-16.2l-12.1,4.2v11.9h-9.9v12.1h10v30.1c0,7.8,6.3,14,14,14.1h12.7v-12Z"/>
  <path class="st0" d="M339,54.2l-16.1,41.4-16.2-41.4h-12.1l22,56.3h12.5l22-56.3h-12.1Z"/>
  <path class="st0" d="M381.9,98.4c-12.4,0-20.1-13.4-13.9-24.1s21.7-10.7,27.9,0c1.4,2.4,2.2,5.2,2.2,8,0,8.9-7.2,16.1-16.1,16.1ZM398,59.3c-17.8-12.4-42.3-1-44.2,20.6-1.9,21.6,20.3,37.1,39.9,27.9,1.5-.7,2.9-1.5,4.2-2.4v5.1h12.1v-56.3h-12.1v5.1Z"/>
  <path class="st0" d="M474.5,54.2h-12.1l-16.1,41.4-16.2-41.4h-12.1l22,56.3h12.5l22-56.3Z"/>
  <path class="st0" d="M505.3,98.4c-12.4,0-20.1-13.4-13.9-24.1s21.7-10.7,27.9,0c1.4,2.4,2.2,5.2,2.2,8,0,8.9-7.2,16.1-16.1,16.1ZM505.3,54.2c-21.7,0-35.2,23.5-24.4,42.2,10.8,18.8,37.9,18.8,48.7,0,2.5-4.3,3.8-9.1,3.8-14.1,0-15.5-12.6-28.1-28.1-28.1h0Z"/>
  <path class="st0" d="M74.6,40.6h27.9l-41.2,69h-27.8l41.1-69Z"/>
  <path class="st0" d="M100.2,74.9h27.9l-20.6,34.7h-27.8l20.6-34.7Z"/>
</svg>