<?xml version="1.0" encoding="UTF-8"?>
<svg id="Capa_1" xmlns="http://www.w3.org/2000/svg" version="1.1" viewBox="0 0 370.1 141.7">
  <!-- Generator: Adobe Illustrator 29.1.0, SVG Export Plug-In . SVG Version: 2.1.0 Build 142)  -->
  <defs>
    <style>
      .st0 {
        fill: #fff;
      }
    </style>
  </defs>
  <path class="st0" d="M278.3,121.9h86.8l-10.4-24h-46.7v-16.2h36.3v-22.3h-36.3v-15.4h46.7l10.5-23.9-86.8-.2v102ZM95,19.9l9.3,23.6h20.1v78.4h27.6V43.4h20.4l9.3-23.6h-86.8ZM52.2,98.4c8.2,0,12.9-3.3,12.9-9.1v-.3c0-5.4-4.2-8.9-13.2-8.9h-20.6v18.3h20.9ZM48.3,60.8c8.2,0,12.8-2.8,12.8-8.7v-.3c0-5.4-4.2-8.5-12.2-8.5h-17.5v17.5h17ZM181.5,105.5l15.2-18.2c9.7,7.7,20.5,11.8,31.9,11.8s11.2-2.5,11.2-6.8v-.3c0-4.1-3.2-6.3-16.6-9.4-20.9-4.8-37.1-10.7-37.1-31v-.3c0-18.3,14.5-31.6,38-31.6s29.8,4.5,40.4,13.1l-13.6,19.3c-9-6.3-18.8-9.7-27.5-9.7s-9.8,2.8-9.8,6.3v.3c0,4.5,3.4,6.5,17,9.6,22.6,4.9,36.6,12.3,36.6,30.7v.3c0,20.2-15.9,32.1-39.7,32.1s-34-5.5-46-16.3h0ZM5,21.2h49.9c12.2,0,20.9,3.1,26.6,8.9,3.9,4,6.3,9.2,6.3,16v.3c0,11.5-6.4,18.3-15,22.1,11.8,4,19.3,10.8,19.3,24.3v.3c0,17-13.6,27.4-36.8,27.4H5V21.2h0Z"/>
</svg>