<?xml version="1.0" encoding="UTF-8"?>
<svg id="Layer_1" xmlns="http://www.w3.org/2000/svg" version="1.1" viewBox="0 0 512 204.1">
  <!-- Generator: Adobe Illustrator 29.1.0, SVG Export Plug-In . SVG Version: 2.1.0 Build 142)  -->
  <defs>
    <style>
      .st0 {
        fill-rule: evenodd;
      }

      .st0, .st1 {
        fill: #fff;
      }
    </style>
  </defs>
  <path class="st1" d="M84.9,64.1c.6-29.1-15.9-54.4-24.5-60.5,0,0-.8-.4-.7.7,0,0,0,0,0,0-.9,54.9-29.1,69.7-44.4,89.8-34.1,44.8-5.6,95.8,31.2,105.5.6.2,2.3.7,5.6,1.3,1.7.4,2.2-1.1.9-3.2-4.4-7.6-12.2-20.6-13.8-37.2-3.5-38.6,45-62.7,45.7-96.5Z"/>
  <path class="st1" d="M103.4,82.8c-.3-.2-.7-.2-.7.2-.8,7-8,21.5-17.5,35-32,45.7-15.9,66.4-3.4,80.8,2.3,2.7,3.5,2.1,4.7.2,1.1-1.8,2.9-4.1,10.3-7.6,1.2-.5,29.1-15.4,32.1-49.2,2.9-32.7-18.1-53.4-25.5-59.4Z"/>
  <path class="st1" d="M269.7,74.4v120.2h-25.8v-48.5h-49.5v48.5h-26.4v-120.2h26.4v48.5h49.5v-48.5h25.8Z"/>
  <path class="st1" d="M388.9,74.4v23.8h-37v96.4h-26.5v-96.4h-36.3v-23.8h99.9Z"/>
  <path class="st0" d="M482.8,194.7l-30.3-41.8-30.1,41.6h-29.4s44.6-61.3,44.6-61.3l-42.1-58.8h29.4l87.2,120.3h-29.3Z"/>
  <path class="st1" d="M460.7,101.3l14.5,20.2,34.5-47.1h-29.2l-19.8,26.9Z"/>
</svg>