<?xml version="1.0" encoding="UTF-8"?>
<svg id="Capa_1" xmlns="http://www.w3.org/2000/svg" version="1.1" viewBox="0 0 425.2 141.7">
  <!-- Generator: Adobe Illustrator 29.1.0, SVG Export Plug-In . SVG Version: 2.1.0 Build 142)  -->
  <defs>
    <style>
      .st0 {
        fill: #fff;
        fill-rule: evenodd;
      }
    </style>
  </defs>
  <g>
    <path class="st0" d="M15.2,115c-3,0-4.5,0-5.7-.6-1-.5-1.8-1.3-2.4-2.4-.6-1.2-.6-2.7-.6-5.7V26.8h13.8c3,0,4.5,0,5.7.6,1,.5,1.8,1.3,2.4,2.4.6,1.2.6,2.7.6,5.7v54.5c0,1.5,0,2.3.3,2.8.3.5.7.9,1.2,1.2.6.3,1.3.3,2.8.3h32.2c3,0,4.5,0,5.7.6,1,.5,1.8,1.3,2.4,2.4.6,1.2.6,2.7.6,5.7v12.1H15.2Z"/>
    <path class="st0" d="M252.4,35.4c0-3,0-4.5.6-5.7.5-1,1.3-1.8,2.4-2.4,1.2-.6,2.7-.6,5.7-.6h7.9c1.8,0,2.7,0,3.5.3.7.2,1.4.6,1.9,1.1.6.6,1.1,1.4,2,2.9l27.6,48.3v-44c0-3,0-4.5.6-5.7.5-1,1.3-1.8,2.4-2.4,1.2-.6,2.7-.6,5.7-.6h12.9v79.5c0,3,0,4.5-.6,5.7-.5,1-1.3,1.8-2.4,2.4-1.1.6-2.7.6-5.7.6h-7.9c-1.8,0-2.7,0-3.5-.3-.7-.2-1.4-.6-1.9-1.1-.6-.6-1.1-1.4-2-3l-27.6-48.3v44c0,3,0,4.5-.6,5.7-.5,1-1.3,1.8-2.4,2.4-1.2.6-2.7.6-5.7.6h-12.9V35.4Z"/>
    <path class="st0" d="M348.8,26.8h-12.9v79.5c0,3,0,4.5.6,5.7.5,1,1.3,1.8,2.4,2.4,1.2.6,2.7.6,5.7.6h12.9v-36h3.5c1.5,0,2.3,0,3,.2.6.2,1.2.4,1.7.8.6.4,1.1,1,2,2.2l24,29.6c.9,1.2,1.4,1.8,2,2.2.5.4,1.1.7,1.7.8.7.2,1.4.2,3,.2h20.4l-31.7-39.1c-1.6-1.9-2.4-2.9-2.7-4-.3-1-.3-2,0-2.9.3-1.1,1.1-2.1,2.7-4h0s31-38.2,31-38.2h-20.2c-1.5,0-2.2,0-2.9.2-.6.2-1.2.4-1.7.8-.6.4-1.1,1-2,2.2l-23.4,28.8c-.9,1.2-1.4,1.7-2,2.2-.5.4-1.1.6-1.7.8-.7.2-1.4.2-2.9.2h-3.6v-26.5c0-3,0-4.5-.6-5.7-.5-1-1.3-1.8-2.4-2.4-1.2-.6-2.7-.6-5.7-.6h0Z"/>
  </g>
  <path class="st0" d="M84.3,112.9c-.6-1.2-.6-2.7-.6-5.7V34.5c0-3,0-4.5.6-5.7.5-1,1.3-1.8,2.4-2.4,1.2-.6,2.7-.6,5.7-.6h28.2c7.5,0,11.3,0,14.3.8,8.4,2.2,14.9,8.8,17.1,17.2.8,3.1.8,6.9.8,14.4h0c0,4.9-2.2,6.7-4.1,8.2-1.4,1.1-2.6,2.1-2.6,4.1s1.4,3,3.1,4.1c2.3,1.6,5,3.5,5,8.7,0,7.5,0,11.3-.8,14.4-2.2,8.4-8.8,14.9-17.1,17.2-3.1.8-6.8.8-14.3.8h-29.5c-3,0-4.5,0-5.7-.6-1-.5-1.8-1.3-2.4-2.4h0ZM123.9,55.4c1.7-2.7,3.2-5,3.2-7.9,0-6-4.8-10.8-10.8-10.8s-10.8,5.1-10.8,10.8,1.5,5.3,3.2,7.9c2.4,3.6,5.2,7.9,5.2,15.5s-2.8,11.8-5.2,15.5c-1.7,2.7-3.2,5-3.2,7.9,0,6,4.8,10.8,10.8,10.8s10.8-4.8,10.8-10.8-1.5-5.2-3.2-7.9c-2.3-3.6-5-8-5-15.5s2.7-11.8,5-15.5Z"/>
  <path class="st0" d="M187.1,97.4l-3.7,11.5c-.7,2.2-1,3.2-1.7,4-.6.7-1.3,1.3-2.2,1.6-1,.4-2.1.4-4.3.4h-16.2l26.1-82.6c.7-2.2,1-3.3,1.7-4.1.6-.7,1.3-1.3,2.2-1.6,1-.4,2.1-.4,4.4-.4h17.9c2.3,0,3.4,0,4.4.4.8.3,1.6.9,2.2,1.6.7.8,1,1.9,1.7,4.1l26.1,82.6h-16.2c-2.3,0-3.4,0-4.3-.4-.8-.3-1.6-.9-2.2-1.6-.7-.8-1-1.9-1.7-4l-3.7-11.5h-30.2ZM191.6,83h21.1l-10.5-33.1-10.5,33.1Z"/>
</svg>