<?xml version="1.0" encoding="UTF-8"?>
<svg id="Layer_1" xmlns="http://www.w3.org/2000/svg" xmlns:xlink="http://www.w3.org/1999/xlink" version="1.1" viewBox="0 0 476.2 124.7">
  <!-- Generator: Adobe Illustrator 29.1.0, SVG Export Plug-In . SVG Version: 2.1.0 Build 142)  -->
  <defs>
    <style>
      .st0 {
        fill: none;
      }

      .st1 {
        fill: #fff;
      }

      .st2 {
        fill: #fff;
      }

      .st3 {
        fill: #fff;
      }
    </style>
    <linearGradient id="Degradado_sin_nombre" data-name="Degradado sin nombre" x1="64.1" y1="-69.7" x2="137.2" y2="-96.7" gradientTransform="translate(-13.8 -10.2) scale(1 -1)" gradientUnits="userSpaceOnUse">
      <stop offset="0" stop-color="#fff" stop-opacity="0"/>
      <stop offset="1" stop-color="#fff"/>
    </linearGradient>
  </defs>
  <path class="st1" d="M149.5,75l-30.1-52.1c-6.6-10.8-22.7-11-29,.5l-31.6,54.3c-5.9,10,1.4,22.5,13.2,22.5h63.3c11.9,0,20.8-12.9,14.3-25.1Z"/>
  <path class="st3" d="M106.1,79.1l-1.9-3.2c-1.8-3-5.6-9.5-5.6-9.5l-25.5-44.2c-5.1-7.7-15.4-9.8-23.1-4.7-2.4,1.6-4.4,3.8-5.7,6.4l-29.6,51.3c-4.6,7.9-1.9,18.1,6.2,22.7,2.5,1.5,5.4,2.2,8.3,2.2h105.7c-16.3,0-21.5-8.4-28.9-21Z"/>
  <path class="st2" d="M106.1,79.1l-1.9-3.2c-1.8-3-5.6-9.5-5.6-9.5l-16.4-28.9-23.6,40.2c-5.9,10,1.4,22.5,13.2,22.5h63.2c-16.4,0-21.5-8.5-28.9-21.1Z"/>
  <path class="st3" d="M261.4,95.5v-60.2h50.1v3.8c0,3-2.4,5.5-5.5,5.5h-32.2v16.1h32.2v9.3h-32.2v16.2h32.2c3,0,5.5,2.4,5.5,5.5h0v3.8h-50.1Z"/>
  <path class="st3" d="M383.4,35.1h-11.8c-2.1,0-4.2,1-5.6,2.6l-14.2,18-14.3-17.9c-1.4-1.7-3.4-2.6-5.6-2.6h-11.8l23.9,30.1-23.9,30.1h11.8c2.1,0,4.2-1,5.6-2.6l14.3-17.8,14.4,18c1.4,1.7,3.4,2.6,5.6,2.6h11.8l-24-30.1,23.8-30.4Z"/>
  <path class="st3" d="M222.2,89l16.4-28.7v35h12.5v-60.2h-7.7c-2.4,0-4.7,1.3-5.9,3.4l-19.6,35.8-19.6-35.8c-1.2-2.1-3.4-3.5-5.9-3.4h-7.8v60.2h12.5v-35l16.4,28.7h8.7Z"/>
  <path class="st3" d="M416,96.1c-17.1.4-31.2-13.2-31.5-30.3v-.5c0-9.5,2.9-17.4,8.3-22.7s13.3-8.2,22.7-8.2,19.6,3.8,25.9,11.2l-3.9,3.3c-2.4,2.1-6.1,2.1-8.7.2-3.7-2.7-8.2-4.1-12.8-3.9-12.3,0-19.5,7.4-19.5,19.9s7.5,20.4,19.5,20.4c4.6,0,9.1-1.3,12.8-3.9,2.6-2,6.2-1.9,8.7.2l3.9,3.3c-6.2,7.2-14.5,10.9-25.3,10.9Z"/>
</svg>
