<?xml version="1.0" encoding="UTF-8"?>
<svg id="svg8" xmlns="http://www.w3.org/2000/svg" xmlns:svg="http://www.w3.org/2000/svg" xmlns:sodipodi="http://sodipodi.sourceforge.net/DTD/sodipodi-0.dtd" xmlns:rdf="http://www.w3.org/1999/02/22-rdf-syntax-ns#" xmlns:inkscape="http://www.inkscape.org/namespaces/inkscape" xmlns:dc="http://purl.org/dc/elements/1.1/" xmlns:cc="http://creativecommons.org/ns#" version="1.1" viewBox="0 0 446.2 125.2">
  <!-- Generator: Adobe Illustrator 29.1.0, SVG Export Plug-In . SVG Version: 2.1.0 Build 142)  -->
  <defs>
    <style>
      .st0 {
        fill: #fff;
      }
    </style>
  </defs>
  <sodipodi:namedview id="base" bordercolor="#666666" borderopacity="1.0" fit-margin-bottom="0" fit-margin-left="0" fit-margin-right="0" fit-margin-top="0" inkscape:current-layer="layer1" inkscape:cx="567.26578" inkscape:cy="219.28838" inkscape:document-units="mm" inkscape:pagecheckerboard="true" inkscape:pageopacity="0.0" inkscape:pageshadow="2" inkscape:window-height="1017" inkscape:window-maximized="1" inkscape:window-width="1920" inkscape:window-x="1912" inkscape:window-y="70" inkscape:zoom="0.98994949" pagecolor="#ffffff" showgrid="false"/>
  <g id="layer1" inkscape:groupmode="layer" inkscape:label="Layer 1">
    <g id="g886">
      <path id="path839" class="st0" d="M130.9,0H3C2.2,0,1.4.3.9.8.3,1.3,0,2,0,2.8v119.7c0,.7.3,1.4.9,2,.6.5,1.3.8,2.1.8h127.9c.8,0,1.5-.3,2.1-.8.6-.5.9-1.2.9-2V2.8c0-.7-.3-1.4-.9-2C132.4.3,131.7,0,130.9,0ZM89.2,80.7c0,.7-.3,1.4-.9,2-.6.5-1.3.8-2.1.8h-38.7c-.8,0-1.5-.3-2.1-.8-.6-.5-.9-1.2-.9-2v-36.2c0-.7.3-1.4.9-2,.6-.5,1.3-.8,2.1-.8h38.7c.8,0,1.5.3,2.1.8.6.5.9,1.2.9,2v36.2Z" inkscape:connector-curvature="0"/>
      <path id="path841" class="st0" d="M398.6,41.8h-38.7c-1.6,0-3,1.2-3,2.8v36.2c0,1.5,1.3,2.8,3,2.8h38.7c1.6,0,3-1.2,3-2.8v-36.2c0-1.5-1.3-2.8-3-2.8h0Z" inkscape:connector-curvature="0"/>
      <path id="path843" class="st0" d="M354,0h-38.7c-1.6,0-3,1.2-3,2.8v36.2c0,1.5,1.3,2.8,3,2.8h38.7c1.6,0,3-1.2,3-2.8V2.8c0-1.5-1.3-2.8-3-2.8Z" inkscape:connector-curvature="0"/>
      <path id="path845" class="st0" d="M443.3,0h-38.7c-1.6,0-3,1.2-3,2.8v36.2c0,1.5,1.3,2.8,3,2.8h38.7c1.6,0,3-1.2,3-2.8V2.8c0-1.5-1.3-2.8-3-2.8Z" inkscape:connector-curvature="0"/>
      <path id="path847" class="st0" d="M354,83.5h-38.7c-1.6,0-3,1.2-3,2.8v36.2c0,1.5,1.3,2.8,3,2.8h38.7c1.6,0,3-1.2,3-2.8v-36.2c0-1.5-1.3-2.8-3-2.8Z" inkscape:connector-curvature="0"/>
      <path id="path849" class="st0" d="M443.3,83.5h-38.7c-1.6,0-3,1.2-3,2.8v36.2c0,1.5,1.3,2.8,3,2.8h38.7c1.6,0,3-1.2,3-2.8v-36.2c0-1.5-1.3-2.8-3-2.8Z" inkscape:connector-curvature="0"/>
      <path id="path851" class="st0" d="M287,0h-38.7c-1.6,0-3,1.2-3,2.8v36.2c0,1.5,1.3,2.8,3,2.8h38.7c1.6,0,3-1.2,3-2.8V2.8c0-1.5-1.3-2.8-3-2.8Z" inkscape:connector-curvature="0"/>
      <path id="path853" class="st0" d="M287,83.5h-38.7c-1.6,0-3,1.2-3,2.8v36.2c0,1.5,1.3,2.8,3,2.8h38.7c1.6,0,3-1.2,3-2.8v-36.2c0-1.5-1.3-2.8-3-2.8Z" inkscape:connector-curvature="0"/>
      <path id="path855" class="st0" d="M245.4,44.5c0-.7-.3-1.4-.9-2-.6-.5-1.3-.8-2.1-.8h-41.6V2.8c0-.7-.3-1.4-.9-2C199.3.3,198.6,0,197.8,0h-38.7C158.3,0,157.6.3,157,.8c-.6.5-.9,1.2-.9,2v119.6c0,.7.3,1.4.9,2,.6.5,1.3.8,2.1.8h38.7c.8,0,1.5-.3,2.1-.8s.9-1.2.9-2v-38.9h41.6c.8,0,1.5-.3,2.1-.8.6-.5.9-1.2.9-2v-36.2Z" inkscape:connector-curvature="0"/>
    </g>
  </g>
</svg>